<?xml version="1.0" encoding="UTF-8"?>
<svg id="logosandtypes_com" data-name="logosandtypes com" xmlns="http://www.w3.org/2000/svg" viewBox="0 0 150 150">
  <defs>
    <style>
      .cls-1 {
        fill: none;
      }

      .cls-2 {
        fill: #231f20;
      }
    </style>
  </defs>
  <path class="cls-1" d="M0,0H150V150H0V0Z"/>
  <path class="cls-2" d="M89.34,72.14h24.62V39.07s-10.38,3.14-18.34,19.31c-1.93,4.1-4.1,8.69-6.28,13.76Zm24.62,5.55h-27.28c-7.97,17.14-18.34,35.72-36.45,42.72C21.76,131.04,1,113.9,1,95.07c0-12.07,9.41-22.69,21.24-22.69,4.67-.05,9.24,1.38,13.03,4.1,3.41,2.33,5.61,6.03,6.03,10.14,0,4.27-3.46,7.72-7.72,7.72-4.27,0-7.72-3.46-7.72-7.72,.19-3.53,2.62-6.55,6.03-7.48-2.47-1.98-5.52-3.09-8.69-3.14-9.2-.15-16.77,7.19-16.92,16.38,0,.41,0,.83,.03,1.24,.48,21.97,39.59,39.83,61.79-1.69,8.45-15.93,14-32.83,21.72-44.65,13.52-20.52,31.62-23.41,31.62-23.41,.99-.26,2.04-.08,2.9,.48,.74,.48,1.19,1.29,1.21,2.17V106.18c0,7.72,.48,9.41,9.41,9.41v3.62l-11.59-.48h-7.72l-11.34,.48v-3.62c8.93,0,9.9-2.17,9.9-9.17l-.24-28.72Z"/>
</svg>